HIERARCHY
ROOT Hips
{
	OFFSET -3.958830 18.904000 13.208200
	CHANNELS 6 Xposition Yposition Zposition Zrotation Yrotation Xrotation 
	JOINT LHipJoint
	{
		OFFSET 0.000000 0.000000 0.000000
		CHANNELS 3 Zrotation Yrotation Xrotation
		JOINT LeftUpLeg
		{
			OFFSET 1.800000 -1.400000 0.085000
			CHANNELS 3 Zrotation Yrotation Xrotation
			JOINT LeftLeg
			{
				OFFSET 2.215000 -6.000000 0.000000
				CHANNELS 3 Zrotation Yrotation Xrotation
				JOINT LeftFoot
				{
					OFFSET 2.500000 -6.900000 0.000000
					CHANNELS 3 Zrotation Yrotation Xrotation
					JOINT LeftToeBase
					{
						OFFSET 0.200000 -0.500000 1.950000
						CHANNELS 3 Zrotation Yrotation Xrotation
						End Site
						{
							OFFSET 0.000000 0.000000 0.000000
						}
					}
				}
			}
		}
	}
	JOINT RHipJoint
	{
		OFFSET 0.000000 0.000000 0.000000
		CHANNELS 3 Zrotation Yrotation Xrotation
		JOINT RightUpLeg
		{
			OFFSET -1.800000 -1.400000 0.085000
			CHANNELS 3 Zrotation Yrotation Xrotation
			JOINT RightLeg
			{
				OFFSET -2.215000 -6.000000 0.000000
				CHANNELS 3 Zrotation Yrotation Xrotation
				JOINT RightFoot
				{
					OFFSET -2.500000 -6.900000 0.000000
					CHANNELS 3 Zrotation Yrotation Xrotation
					JOINT RightToeBase
					{
						OFFSET -0.200000 -0.500000 1.950000
						CHANNELS 3 Zrotation Yrotation Xrotation
						End Site
						{
							OFFSET 0.000000 0.000000 0.000000
						}
					}
				}
			}
		}
	}
	JOINT LowerBack
	{
		OFFSET 0.000000 0.000000 0.000000
		CHANNELS 3 Zrotation Yrotation Xrotation
		JOINT Spine
		{
			OFFSET -0.087000 1.940000 -0.288900
			CHANNELS 3 Zrotation Yrotation Xrotation
			JOINT Spine1
			{
				OFFSET 0.000000 1.950000 0.060000
				CHANNELS 3 Zrotation Yrotation Xrotation
				JOINT Neck
				{
					OFFSET 0.000000 0.000000 0.000000
					CHANNELS 3 Zrotation Yrotation Xrotation
					JOINT Neck1
					{
						OFFSET 0.000000 1.600000 0.340000
						CHANNELS 3 Zrotation Yrotation Xrotation
						JOINT Head
						{
							OFFSET 0.000000 1.667000 -0.240000
							CHANNELS 3 Zrotation Yrotation Xrotation
							End Site
							{
								OFFSET 0.000000 0.000000 0.000000
							}
						}
					}
				}
				JOINT LeftShoulder
				{
					OFFSET 0.000000 0.000000 0.000000
					CHANNELS 3 Zrotation Yrotation Xrotation
					JOINT LeftArm
					{
						OFFSET 2.700000 1.550000 -0.730000
						CHANNELS 3 Zrotation Yrotation Xrotation
						JOINT LeftForeArm
						{
							OFFSET 5.450000 0.000000 0.000000
							CHANNELS 3 Zrotation Yrotation Xrotation
							JOINT LeftHand
							{
								OFFSET 3.450000 0.000000 0.000000
								CHANNELS 3 Zrotation Yrotation Xrotation
								JOINT LeftHandIndex1
								{
									OFFSET 0.750000 0.000000 0.000000
									CHANNELS 3 Zrotation Yrotation Xrotation
									End Site
									{
										OFFSET 0.000000 0.000000 0.000000
									}
								}
							}
						}
					}
				}
				JOINT RightShoulder
				{
					OFFSET 0.000000 0.000000 0.000000
					CHANNELS 3 Zrotation Yrotation Xrotation
					JOINT RightArm
					{
						OFFSET -2.700000 1.550000 -0.730000
						CHANNELS 3 Zrotation Yrotation Xrotation
						JOINT RightForeArm
						{
							OFFSET -5.450000 0.000000 0.000000
							CHANNELS 3 Zrotation Yrotation Xrotation
							JOINT RightHand
							{
								OFFSET -3.450000 0.000000 0.000000
								CHANNELS 3 Zrotation Yrotation Xrotation
								JOINT RightHandIndex1
								{
									OFFSET -0.750000 0.000000 0.000000
									CHANNELS 3 Zrotation Yrotation Xrotation
									End Site
									{
										OFFSET 0.000000 0.000000 0.000000
									}
								}
							}
						}
					}
				}
			}
		}
	}
}
MOTION
Frames: 12
Frame Time: 0.016667
-0.356040 16.869790 -0.838280 -2.707564 -12.621785 11.258966 -15.259924 11.791970 4.322939 3.245817 -5.725184 -38.659377 -4.989099 3.214689 5.557065 -0.298013 1.979013 3.832402 0.063020 -0.026770 0.007500 18.287215 -10.570220 2.766490 -6.229176 -0.247849 -4.620023 8.309602 -4.157519 2.904262 -0.183990 -3.759483 3.197026 0.012630 0.129900 0.035570 -3.392079 -0.713834 -7.900776 2.934609 7.052327 11.222652 0.392666 7.823633 -6.025288 0.154873 -5.162092 -5.427009 -8.811450 0.129318 24.498016 0.331140 -1.048280 -5.187750 -26.785244 6.357001 -1.166521 -45.358949 15.481165 -11.792037 -23.587147 -12.828647 -0.165057 -3.729894 3.057975 0.041690 0.070360 -0.103930 0.077510 26.364932 1.114616 3.544185 48.565998 -14.728739 -10.129142 11.317215 3.027132 -1.137874 2.675762 -1.219874 -0.061970 0.048540 -0.011320 -0.021480 
-0.362080 16.873850 -0.799310 -2.727018 -11.917774 11.651580 -15.272165 11.720836 4.318000 2.822424 -5.829871 -38.710424 -4.979283 3.126918 5.086139 -0.282067 1.922441 3.855678 0.045690 -0.049990 -0.001860 18.288993 -10.553796 2.802336 -5.960669 -0.351189 -4.178896 8.409748 -4.110159 2.140124 -0.199936 -3.797181 3.189125 -0.011620 0.123700 0.039450 -3.381778 -0.614975 -7.908661 2.454780 7.678227 10.895479 0.482526 8.346431 -6.166794 0.252258 -4.791865 -5.759559 -8.082697 -0.750819 24.261984 0.473090 -1.707570 -5.066400 -26.288373 5.950897 -1.016127 -45.448979 15.241768 -11.695845 -23.528373 -11.904405 -0.317640 -3.732123 3.051978 0.040690 0.064330 -0.101580 0.072740 25.779059 1.387998 3.975583 49.669203 -15.736565 -10.552171 11.476181 2.459889 -1.171735 2.697180 -1.209925 -0.053500 0.034090 -0.008590 -0.017360 
-0.351770 16.875650 -0.724890 -2.755060 -10.494101 12.240975 -15.269074 11.592919 4.286436 1.670832 -6.080808 -38.764238 -4.446157 2.973521 4.860151 -0.281856 1.807949 3.906756 0.023540 -0.080450 -0.014760 18.316018 -10.562393 2.864188 -5.602078 -0.499489 -3.449975 8.477937 -4.029678 0.963005 -0.220152 -3.885003 3.165947 -0.034180 0.125550 0.045550 -3.436542 -0.359720 -7.889829 2.227183 8.776965 10.253710 0.167251 9.351475 -6.423855 0.450288 -4.319057 -5.986539 -7.001833 -2.394698 23.512812 0.280750 -2.917340 -4.824720 -26.109754 5.624663 -1.197205 -45.064350 14.515351 -11.209183 -22.847090 -9.790775 -0.670388 -3.754230 3.033881 0.027780 0.069030 -0.111040 0.066270 25.211305 1.547406 4.584704 50.779087 -17.499768 -10.983047 11.660599 0.902756 -1.281868 2.727365 -1.201335 -0.047260 0.020090 -0.000880 -0.012110 
-0.334070 16.880320 -0.630540 -2.721993 -8.251438 12.604128 -15.262958 11.426272 4.214005 0.144204 -6.401341 -38.614380 -3.525304 2.824971 5.154213 -0.287148 1.677766 3.963728 0.000680 -0.115890 -0.027880 18.355804 -10.576454 2.962295 -5.244915 -0.745196 -2.087243 8.845776 -3.985894 -0.664739 -0.263510 -4.067693 3.106797 -0.057410 0.127670 0.054770 -3.518284 -0.011569 -7.846080 2.006252 10.290129 9.291332 -0.073365 10.752443 -6.313394 0.630395 -3.458423 -6.143333 -5.338020 -4.873997 23.023269 0.192390 -4.927830 -4.270790 -25.941819 5.033231 -1.538089 -44.430358 12.413761 -10.313833 -22.627349 -8.203965 -0.804107 -3.781228 3.031603 0.009590 0.074960 -0.124430 0.057580 24.667525 1.696959 5.343381 52.643873 -19.696470 -11.731911 12.137455 -0.466790 -1.434292 2.755070 -1.196288 -0.038400 0.002530 0.009240 -0.004970 
-0.305640 16.883140 -0.512320 -2.468935 -5.881118 13.021091 -15.238476 11.245793 4.140888 -1.280828 -6.694168 -37.992444 -3.308172 2.722476 5.074918 -0.279674 1.591864 4.010142 -0.036640 -0.164110 -0.053950 18.412836 -10.610239 3.045907 -5.008463 -0.953829 -0.752211 8.840551 -3.917901 -2.180435 -0.302070 -4.243483 3.054584 -0.089580 0.135230 0.056570 -3.648573 0.386128 -7.787198 1.856981 11.441011 8.033096 -0.784150 11.781998 -6.085569 0.846252 -2.745519 -6.461596 -3.880185 -7.143922 22.421872 0.113040 -6.827100 -3.474240 -25.153785 4.486660 -1.543383 -44.384494 10.865606 -9.867333 -22.276169 -8.062200 -0.690861 -3.798940 3.028494 -0.008720 0.080630 -0.141730 0.049380 23.393867 1.825444 6.005314 54.996219 -21.125428 -12.604354 13.254223 -2.109364 -1.671323 2.795601 -1.189470 -0.035310 -0.011660 0.023320 0.004960 
-0.288650 16.888970 -0.389880 -2.246798 -3.587718 13.263308 -15.212035 11.073434 4.043232 -2.063011 -6.781559 -37.315280 -3.597550 2.781763 5.480904 -0.263236 1.593159 4.025254 -0.065930 -0.203600 -0.077490 18.472323 -10.666288 3.123797 -4.489528 -1.209423 0.632207 8.487856 -3.841755 -3.562812 -0.342237 -4.412909 3.006077 -0.114720 0.150450 0.060550 -3.779745 0.821807 -7.697896 1.457586 12.490342 6.626224 -1.243917 12.680580 -5.479417 1.008829 -1.799426 -6.878797 -2.047484 -9.173404 21.884762 0.277030 -8.594190 -2.546880 -24.465435 3.306319 -1.116976 -44.999817 9.531093 -9.734936 -21.699032 -9.598809 -0.307076 -3.810898 3.038093 -0.029300 0.091760 -0.160520 0.048490 22.350888 2.493479 6.501877 56.631378 -21.016119 -12.679779 14.586809 -5.319466 -1.994151 2.848362 -1.207968 -0.032890 -0.022220 0.032510 0.016790 
-0.274410 16.904340 -0.271430 -1.980426 -1.857693 13.189929 -15.179675 10.950720 3.925245 -2.445462 -6.711640 -36.470480 -3.792252 2.888923 6.220957 -0.259826 1.629667 4.018190 -0.079050 -0.223790 -0.079730 18.527442 -10.760458 3.178825 -4.059802 -1.435953 1.833675 7.961615 -3.832265 -4.337194 -0.378055 -4.557979 2.956038 -0.123950 0.153830 0.069570 -3.907743 1.248517 -7.589011 1.008193 13.410868 5.380247 -2.138690 13.495324 -4.765060 1.382751 -0.571392 -7.187468 0.115831 -10.976028 21.692119 -0.025850 -9.849850 -1.834220 -24.421758 1.854461 -0.824100 -44.816586 7.656913 -9.170798 -21.064026 -11.056943 0.079983 -3.823002 3.050495 -0.045300 0.104440 -0.170230 0.041410 21.468982 3.156618 6.908602 57.906032 -20.265989 -12.559454 16.267945 -7.280623 -2.376141 2.869409 -1.241994 -0.029280 -0.033060 0.038450 0.018470 
-0.250960 16.928470 -0.153800 -1.769314 0.093461 12.749852 -15.134909 10.888091 3.819740 -2.678375 -6.550367 -35.497676 -4.067441 3.073792 7.341641 -0.257327 1.702332 3.994607 -0.093880 -0.254020 -0.073630 18.577375 -10.927204 3.197966 -3.452480 -1.700327 2.870225 6.986946 -3.923024 -3.992729 -0.399741 -4.639076 2.924609 -0.140690 0.148710 0.074510 -4.045402 1.688156 -7.491140 1.032361 14.050769 4.473094 -3.217667 14.121843 -4.133706 1.815025 0.764127 -7.548351 2.226712 -12.531747 22.214034 -0.216350 -11.029220 -0.999860 -24.342828 0.514977 -0.445411 -45.042240 6.217679 -8.810361 -20.061154 -12.510247 0.386581 -3.825151 3.045589 -0.043420 0.106190 -0.172470 0.029750 20.374520 3.633199 7.235401 58.809914 -19.150372 -12.203361 17.470890 -8.240416 -2.596518 2.879938 -1.263510 -0.031320 -0.041800 0.045380 0.012380 
-0.218730 16.951050 -0.041090 -1.596692 1.563180 12.122274 -15.087899 10.859410 3.701616 -3.235404 -6.342793 -34.225632 -3.820842 3.151383 8.309587 -0.267036 1.734451 3.982715 -0.094410 -0.259750 -0.060790 18.621723 -11.114255 3.189685 -3.357823 -1.866111 3.741437 6.506626 -4.136467 -2.913386 -0.418529 -4.732369 2.887482 -0.140750 0.140730 0.079490 -4.180863 2.106992 -7.368393 1.237429 14.567689 3.597229 -4.095231 14.651103 -3.175336 2.306784 1.979010 -7.926215 4.161902 -13.496594 22.772939 -0.492690 -11.592570 -0.507100 -24.340804 -0.922409 -0.015442 -45.856881 4.696237 -8.298962 -18.497489 -12.677414 0.387942 -3.839529 3.027435 -0.041930 0.109780 -0.169480 0.020030 19.270542 4.318834 7.526337 58.808826 -17.165971 -11.224403 18.300166 -7.889270 -2.627610 2.863145 -1.294746 -0.031450 -0.045930 0.047900 0.004780 
-0.186440 16.983060 0.054100 -1.251756 3.849056 11.335533 -15.053160 10.827902 3.648545 -3.900865 -6.285290 -33.346884 -3.791450 3.335001 9.825747 -0.249052 1.784738 3.954400 -0.090640 -0.257570 -0.039750 18.647840 -11.296363 3.185810 -3.085943 -2.062606 4.551977 6.116965 -4.369823 -1.584153 -0.442052 -4.793388 2.861672 -0.149860 0.111040 0.077450 -4.280784 2.494364 -7.324080 1.399733 14.773957 3.185786 -5.258984 14.928419 -2.422129 2.872839 3.507003 -8.648704 6.388857 -14.289341 24.413208 -0.488040 -12.156230 0.309120 -24.483632 -3.058920 0.710033 -46.341853 3.246636 -7.609461 -16.519344 -11.860884 0.240901 -3.830459 3.005660 -0.033160 0.094870 -0.149330 0.009680 18.180567 5.507601 8.038204 58.301402 -14.927481 -10.088513 19.984372 -6.455391 -2.673916 2.841884 -1.325908 -0.019930 -0.058780 0.037330 -0.001520 
-0.148250 17.012590 0.144660 -1.045807 6.520535 10.448999 -15.020102 10.793180 3.576546 -4.749478 -6.211353 -32.324738 -3.277715 3.387016 11.103994 -0.251144 1.821871 3.935959 -0.082180 -0.248890 -0.022200 18.683348 -11.434860 3.195546 -2.709168 -2.275342 5.588973 5.831554 -4.576753 -0.582724 -0.473373 -4.900450 2.818159 -0.144580 0.097240 0.082330 -4.398961 2.816954 -7.264428 1.927423 14.628443 2.605253 -6.069730 14.852910 -1.203605 3.408683 4.896044 -9.274172 8.607476 -14.901655 25.723835 -0.872130 -12.379810 1.237370 -24.479768 -5.059013 1.487780 -46.842892 1.967476 -6.858351 -15.471795 -10.750467 0.099950 -3.838970 2.997327 -0.033500 0.096880 -0.139950 0.003700 17.047682 6.564661 8.361975 57.608902 -12.181681 -8.552770 20.084639 -4.502410 -2.307300 2.811676 -1.358225 -0.014010 -0.066290 0.032200 -0.007460 
-0.116550 17.043030 0.270890 -0.730023 9.122066 9.253409 -15.000100 10.804179 3.437267 -5.506114 -5.909552 -30.379828 -3.019477 3.478260 12.140412 -0.257247 1.910660 3.903045 -0.077870 -0.248270 -0.007960 18.704792 -11.538201 3.244186 -2.495184 -2.523843 7.418664 5.832172 -4.841148 -0.031213 -0.532262 -5.097860 2.745815 -0.139050 0.090610 0.082650 -4.478403 3.043894 -7.188439 1.914386 14.291085 1.793537 -6.298651 14.506555 -0.129021 3.775676 6.094994 -9.730607 10.591370 -15.047645 27.568640 -1.036900 -12.338040 2.166130 -24.790330 -6.469554 2.268039 -46.884908 1.693597 -6.290980 -14.764686 -9.569944 -0.051111 -3.841733 2.979807 -0.023560 0.098260 -0.133430 -0.003610 16.677528 7.142717 8.390948 56.215696 -9.471561 -6.771174 18.709286 -2.423217 -1.684928 2.786123 -1.363584 -0.019150 -0.063100 0.035190 -0.017420 
